<svg xmlns="http://www.w3.org/2000/svg" viewBox="0 0 800 800" width="800" height="800"><defs>
  <linearGradient id="cyl" x1="0" x2="1" y1="0" y2="0">
    <stop offset="0" stop-color="#a7542a"/><stop offset="0.28" stop-color="#ed9366"/>
    <stop offset="0.55" stop-color="#e8743b"/><stop offset="1" stop-color="#743a1e"/>
  </linearGradient>
  <linearGradient id="vert" x1="0" x2="0" y1="0" y2="1">
    <stop offset="0" stop-color="#ed9366"/><stop offset="1" stop-color="#a7542a"/>
  </linearGradient>
  <linearGradient id="trimcyl" x1="0" x2="1" y1="0" y2="0">
    <stop offset="0" stop-color="#202329"/><stop offset="0.35" stop-color="#606368"/>
    <stop offset="1" stop-color="#202329"/>
  </linearGradient>
  <linearGradient id="chrome" x1="0" x2="0" y1="0" y2="1">
    <stop offset="0" stop-color="#f4f5f6"/><stop offset="0.5" stop-color="#a9aeb5"/><stop offset="1" stop-color="#dfe2e5"/>
  </linearGradient>
  <radialGradient id="floor" cx="0.5" cy="0.5" r="0.5">
    <stop offset="0" stop-color="#000" stop-opacity="0.22"/><stop offset="1" stop-color="#000" stop-opacity="0"/>
  </radialGradient>
  <radialGradient id="glow" cx="0.5" cy="0" r="1">
    <stop offset="0" stop-color="#fff6c8" stop-opacity="0.95"/><stop offset="1" stop-color="#fff6c8" stop-opacity="0"/>
  </radialGradient>
</defs><rect width="800" height="800" fill="#fceee7"/><rect x="0" y="0" width="800" height="800" fill="#fceee7"/>
        <rect x="32" y="32" width="736" height="736" rx="28" fill="#ffffff" opacity="0.72"/>
        <text x="76" y="110" font-family="Arial, sans-serif" font-size="22" letter-spacing="4" fill="#565959">TRAILFORM</text>
        <text x="76" y="166" font-family="Arial, sans-serif" font-weight="800" font-size="46" fill="#0f1111">Why you’ll love it</text>
        <g transform="translate(400 350) scale(0.44) translate(-400 -410)">
    <ellipse cx="400" cy="668" rx="130" ry="26" fill="url(#floor)"/>
    <rect x="318" y="250" width="164" height="420" rx="46" fill="url(#cyl)"/>
    <rect x="338" y="214" width="124" height="56" rx="16" fill="url(#cyl)"/>
    <rect x="344" y="150" width="112" height="80" rx="22" fill="url(#trimcyl)"/>
    <path d="M362 158 C362 92 438 92 438 158" fill="none" stroke="#202329" stroke-width="16" stroke-linecap="round"/>
    <rect x="318" y="430" width="164" height="54" fill="#743a1e" opacity="0.18"/>
    <rect x="344" y="300" width="18" height="300" rx="9" fill="#fff" opacity="0.18"/></g>
        <rect x="64" y="510" width="672" height="2" fill="#d5d9d9"/>
        
        <circle cx="94" cy="560" r="18" fill="#0b7b3c"/>
        <path d="M85 560 l6 6 l12 -13" fill="none" stroke="#fff" stroke-width="5" stroke-linecap="round" stroke-linejoin="round"/>
        <text x="128" y="569" font-family="Arial, sans-serif" font-weight="700" font-size="28" fill="#0f1111">High-flow squeeze valve</text>
        <circle cx="94" cy="624" r="18" fill="#0b7b3c"/>
        <path d="M85 624 l6 6 l12 -13" fill="none" stroke="#fff" stroke-width="5" stroke-linecap="round" stroke-linejoin="round"/>
        <text x="128" y="633" font-family="Arial, sans-serif" font-weight="700" font-size="28" fill="#0f1111">Lightweight &amp; BPA-free</text>
        <circle cx="94" cy="688" r="18" fill="#0b7b3c"/>
        <path d="M85 688 l6 6 l12 -13" fill="none" stroke="#fff" stroke-width="5" stroke-linecap="round" stroke-linejoin="round"/>
        <text x="128" y="697" font-family="Arial, sans-serif" font-weight="700" font-size="28" fill="#0f1111">Fits bike cages</text></svg>
