<svg xmlns="http://www.w3.org/2000/svg" viewBox="0 0 800 800" width="800" height="800"><defs>
  <linearGradient id="cyl" x1="0" x2="1" y1="0" y2="0">
    <stop offset="0" stop-color="#1f2227"/><stop offset="0.28" stop-color="#5a5d62"/>
    <stop offset="0.55" stop-color="#2b2f36"/><stop offset="1" stop-color="#16181b"/>
  </linearGradient>
  <linearGradient id="vert" x1="0" x2="0" y1="0" y2="1">
    <stop offset="0" stop-color="#5a5d62"/><stop offset="1" stop-color="#1f2227"/>
  </linearGradient>
  <linearGradient id="trimcyl" x1="0" x2="1" y1="0" y2="0">
    <stop offset="0" stop-color="#adaeb0"/><stop offset="0.35" stop-color="#eceef0"/>
    <stop offset="1" stop-color="#adaeb0"/>
  </linearGradient>
  <linearGradient id="chrome" x1="0" x2="0" y1="0" y2="1">
    <stop offset="0" stop-color="#f4f5f6"/><stop offset="0.5" stop-color="#a9aeb5"/><stop offset="1" stop-color="#dfe2e5"/>
  </linearGradient>
  <radialGradient id="floor" cx="0.5" cy="0.5" r="0.5">
    <stop offset="0" stop-color="#000" stop-opacity="0.22"/><stop offset="1" stop-color="#000" stop-opacity="0"/>
  </radialGradient>
  <radialGradient id="glow" cx="0.5" cy="0" r="1">
    <stop offset="0" stop-color="#fff6c8" stop-opacity="0.95"/><stop offset="1" stop-color="#fff6c8" stop-opacity="0"/>
  </radialGradient>
</defs><rect width="800" height="800" fill="#e6e6e7"/><rect x="0" y="0" width="800" height="800" fill="#e6e6e7"/>
        <rect x="32" y="32" width="736" height="736" rx="28" fill="#ffffff" opacity="0.72"/>
        <text x="76" y="110" font-family="Arial, sans-serif" font-size="22" letter-spacing="4" fill="#565959">VOLTIX</text>
        <text x="76" y="166" font-family="Arial, sans-serif" font-weight="800" font-size="46" fill="#0f1111">Why you’ll love it</text>
        <g transform="translate(400 350) scale(0.44) translate(-400 -410)">
    <ellipse cx="400" cy="660" rx="180" ry="26" fill="url(#floor)"/>
    <rect x="280" y="200" width="240" height="440" rx="40" fill="#16181b"/>
    <rect x="270" y="190" width="240" height="440" rx="40" fill="url(#cyl)"/>
    <rect x="320" y="206" width="40" height="12" rx="6" fill="#16181b"/><rect x="380" y="206" width="40" height="12" rx="6" fill="#16181b"/><rect x="440" y="206" width="22" height="12" rx="4" fill="#16181b"/>
    <text x="390" y="420" text-anchor="middle" font-family="Arial, sans-serif" font-weight="700" font-size="44" fill="#ffffff" opacity="0.85">20K</text>
    <text x="390" y="455" text-anchor="middle" font-family="Arial, sans-serif" font-size="18" fill="#ffffff" opacity="0.6">65W · USB-C</text>
    <circle cx="350" cy="560" r="7" fill="#4cc3ff"/><circle cx="377" cy="560" r="7" fill="#4cc3ff"/><circle cx="404" cy="560" r="7" fill="#4cc3ff"/><circle cx="431" cy="560" r="7" fill="#16181b"/></g>
        <rect x="64" y="510" width="672" height="2" fill="#d5d9d9"/>
        
        <circle cx="94" cy="560" r="18" fill="#0b7b3c"/>
        <path d="M85 560 l6 6 l12 -13" fill="none" stroke="#fff" stroke-width="5" stroke-linecap="round" stroke-linejoin="round"/>
        <text x="128" y="569" font-family="Arial, sans-serif" font-weight="700" font-size="28" fill="#0f1111">65W laptop charging</text>
        <circle cx="94" cy="624" r="18" fill="#0b7b3c"/>
        <path d="M85 624 l6 6 l12 -13" fill="none" stroke="#fff" stroke-width="5" stroke-linecap="round" stroke-linejoin="round"/>
        <text x="128" y="633" font-family="Arial, sans-serif" font-weight="700" font-size="28" fill="#0f1111">20,000mAh capacity</text>
        <circle cx="94" cy="688" r="18" fill="#0b7b3c"/>
        <path d="M85 688 l6 6 l12 -13" fill="none" stroke="#fff" stroke-width="5" stroke-linecap="round" stroke-linejoin="round"/>
        <text x="128" y="697" font-family="Arial, sans-serif" font-weight="700" font-size="28" fill="#0f1111">Charge 3 devices at once</text></svg>
