<svg xmlns="http://www.w3.org/2000/svg" viewBox="0 0 800 800" width="800" height="800"><defs>
  <linearGradient id="cyl" x1="0" x2="1" y1="0" y2="0">
    <stop offset="0" stop-color="#1f2227"/><stop offset="0.28" stop-color="#5a5d62"/>
    <stop offset="0.55" stop-color="#2b2f36"/><stop offset="1" stop-color="#16181b"/>
  </linearGradient>
  <linearGradient id="vert" x1="0" x2="0" y1="0" y2="1">
    <stop offset="0" stop-color="#5a5d62"/><stop offset="1" stop-color="#1f2227"/>
  </linearGradient>
  <linearGradient id="trimcyl" x1="0" x2="1" y1="0" y2="0">
    <stop offset="0" stop-color="#ae572c"/><stop offset="0.35" stop-color="#ee976c"/>
    <stop offset="1" stop-color="#ae572c"/>
  </linearGradient>
  <linearGradient id="chrome" x1="0" x2="0" y1="0" y2="1">
    <stop offset="0" stop-color="#f4f5f6"/><stop offset="0.5" stop-color="#a9aeb5"/><stop offset="1" stop-color="#dfe2e5"/>
  </linearGradient>
  <radialGradient id="floor" cx="0.5" cy="0.5" r="0.5">
    <stop offset="0" stop-color="#000" stop-opacity="0.22"/><stop offset="1" stop-color="#000" stop-opacity="0"/>
  </radialGradient>
  <radialGradient id="glow" cx="0.5" cy="0" r="1">
    <stop offset="0" stop-color="#fff6c8" stop-opacity="0.95"/><stop offset="1" stop-color="#fff6c8" stop-opacity="0"/>
  </radialGradient>
</defs><rect width="800" height="800" fill="#ffffff"/><g transform="translate(400 400) scale(1.75) translate(-420 -380)">
    <ellipse cx="410" cy="680" rx="210" ry="22" fill="url(#floor)"/>
    <rect x="262" y="132" width="310" height="540" rx="6" fill="#d9d4cb"/>
    <rect x="250" y="120" width="310" height="540" rx="6" fill="#2b2f36"/>
    <rect x="250" y="120" width="22" height="540" fill="#16181b" opacity="0.5"/>
    <circle cx="410" cy="396" r="64" fill="#e8743b" opacity="0.18"/>
    <path d="M300 476 C350 446 470 506 520 466" fill="none" stroke="#e8743b" stroke-width="5" opacity="0.6"/>
    <text x="416" y="250" text-anchor="middle" font-family="Georgia, 'Times New Roman', serif" font-weight="700" font-size="36" fill="#e8743b">SIGNAL</text><text x="416" y="298" text-anchor="middle" font-family="Georgia, 'Times New Roman', serif" font-weight="700" font-size="36" fill="#e8743b">FIRES</text>
    <text x="410" y="615" text-anchor="middle" font-family="Arial, sans-serif" font-size="22" letter-spacing="3" fill="#e8743b">J. R. OKAFOR</text></g></svg>
